DataType=double																
version=3																
OpenSimVersion=4.4-2022-07-23-0e9fedc																
endheader																
time	InvAntDelt	InvMedDelt	InvPosDelt	InvUpperTrap	NinvAntDelt	NinvMedDelt	NinvPosDelt	NinvUpperTrap	InvAntDelt	InvMedDelt	InvPosDelt	InvUpperTrap	NinvAntDelt	NinvMediDelt	NinvPosDelt	NinvUpperTrap
0.73	534	257	522	395	273	101	342	135	448	228	326	-464	-6	-403	-553	-1088
0.73025	538	257	517	396	280	95	348	151	486	208	341	-458	-1	-409	-545	-939
0.7305	536	257	520	396	284	90	354	163	527	187	361	-444	7	-420	-532	-732
0.73075	536	251	514	395	280	92	354	172	575	160	372	-434	14	-423	-528	-548
0.731	537	255	511	397	287	89	354	175	610	134	375	-421	28	-422	-528	-453
0.73125	535	252	506	398	287	93	360	183	641	103	370	-418	37	-418	-537	-449
0.7315	541	251	505	396	290	90	362	185	665	82	376	-419	48	-415	-541	-508
0.73175	544	246	508	401	288	92	366	191	690	62	387	-418	57	-407	-542	-558
0.732	542	242	503	394	293	89	368	197	723	46	400	-419	50	-404	-544	-542
0.73225	550	240	498	399	291	87	370	203	757	28	424	-413	43	-411	-535	-464
0.7325	552	235	502	398	296	89	372	207	782	8	450	-410	30	-424	-526	-350
0.73275	561	231	500	397	301	86	377	205	819	-10	473	-405	19	-439	-524	-254
0.733	561	230	503	398	302	84	378	206	843	-19	500	-393	9	-451	-529	-196
0.73325	564	222	501	400	303	84	381	206	861	-14	533	-386	0	-461	-523	-191
0.7335	570	219	500	396	301	83	382	206	879	9	576	-383	-5	-458	-527	-209
0.73375	576	217	501	400	305	79	384	201	890	50	616	-376	-10	-454	-526	-220
0.734	578	215	502	397	309	79	388	206	904	104	658	-369	-18	-451	-527	-211
0.73425	588	215	507	399	310	76	389	207	921	170	702	-353	-22	-447	-521	-182
0.7345	584	214	512	398	313	80	391	205	931	243	732	-339	-31	-433	-518	-142
0.73475	597	215	510	393	314	78	389	201	949	314	752	-324	-34	-428	-517	-119
0.735	605	216	520	392	318	75	390	201	959	361	762	-308	-36	-424	-507	-119
0.73525	611	216	524	389	318	71	398	201	966	394	762	-294	-41	-414	-513	-129
0.7355	617	222	528	389	313	73	401	197	975	402	766	-275	-42	-404	-517	-141
0.73575	622	226	534	385	322	74	400	196	984	386	770	-254	-42	-398	-518	-137
0.736	626	229	533	387	323	72	401	194	994	349	771	-230	-46	-394	-507	-121
0.73625	632	225	538	380	321	69	403	196	1007	307	779	-204	-54	-387	-510	-99
0.7365	638	232	544	373	322	69	405	191	1014	272	784	-178	-57	-385	-506	-79
0.73675	646	230	548	377	324	68	405	186	1019	258	782	-156	-59	-379	-504	-63
0.737	650	231	546	373	324	73	403	187	1026	258	779	-133	-66	-376	-501	-54
0.73725	655	232	552	368	324	69	408	187	1031	284	774	-120	-70	-369	-503	-47
0.7375	663	236	558	363	324	70	410	181	1037	306	767	-99	-65	-370	-498	-34
0.73775	671	233	562	357	328	72	409	180	1048	313	756	-82	-72	-358	-498	-11
0.738	673	235	561	353	328	70	412	180	1060	300	738	-64	-75	-358	-492	15
0.73825	683	233	563	347	326	66	414	173	1071	272	720	-41	-80	-352	-488	33
0.7385	687	237	571	341	324	72	412	171	1092	223	700	-21	-77	-350	-481	51
0.73875	694	238	572	338	326	69	413	169	1102	180	673	-6	-79	-345	-477	64
0.739	705	232	570	332	328	67	417	165	1128	141	643	6	-81	-339	-468	72
0.73925	714	227	577	326	329	68	418	166	1146	118	620	12	-87	-329	-464	82
0.7395	714	235	574	322	330	70	419	163	1170	96	590	13	-88	-320	-459	96
0.73975	722	226	570	324	327	69	420	166	1198	72	560	6	-90	-311	-455	112
0.74	732	223	576	307	329	66	419	164	1222	46	536	-3	-94	-308	-444	121
0.74025	739	225	573	308	324	71	416	161	1240	15	515	-16	-99	-298	-441	123
0.7405	748	219	572	303	325	71	417	158	1262	-26	491	-32	-101	-290	-436	118
0.74075	756	217	571	296	325	70	417	163	1282	-61	475	-47	-104	-282	-436	116
0.741	770	216	569	294	322	69	418	161	1303	-92	472	-58	-105	-274	-431	110
0.74125	770	211	567	293	321	72	419	159	1322	-111	473	-66	-107	-254	-429	108
0.7415	779	208	564	281	322	70	419	160	1343	-118	477	-73	-109	-241	-425	118
0.74175	795	206	561	281	318	71	413	158	1356	-115	485	-73	-112	-229	-421	120
0.742	803	204	564	279	316	71	415	158	1359	-117	495	-70	-113	-218	-414	132
0.74225	807	204	562	274	313	72	420	156	1349	-112	499	-65	-117	-207	-407	145
0.7425	825	196	561	269	316	72	418	151	1342	-109	500	-52	-117	-200	-401	157
0.74275	828	199	566	267	313	73	412	157	1317	-111	507	-27	-117	-192	-393	175
0.743	835	202	559	265	310	69	420	156	1290	-114	508	2	-118	-186	-387	190
0.74325	842	194	559	261	303	75	418	159	1261	-111	504	34	-116	-183	-380	202
0.7435	849	196	558	247	304	73	414	158	1231	-105	503	65	-117	-173	-376	212
0.74375	854	196	555	255	302	73	411	159	1203	-99	494	100	-116	-172	-367	220
0.744	859	188	555	252	301	77	415	158	1164	-98	482	130	-118	-166	-363	226
0.74425	860	190	556	246	296	77	412	161	1125	-90	471	149	-113	-168	-360	231
0.7445	870	192	552	249	291	78	408	166	1078	-92	458	181	-111	-170	-356	236
0.74475	873	187	550	251	292	77	407	166	1027	-99	444	202	-104	-169	-349	240
0.745	872	179	550	244	291	76	411	168	973	-101	430	221	-100	-171	-342	249
0.74525	871	182	545	244	285	78	408	171	925	-93	419	238	-91	-176	-336	255
0.7455	877	183	544	244	283	77	404	167	884	-83	412	256	-83	-179	-330	256
0.74575	876	179	543	243	284	73	404	170	843	-70	410	259	-79	-183	-320	256
0.746	876	175	544	245	282	77	402	171	792	-54	408	253	-74	-189	-311	252
0.74625	871	174	537	246	281	77	402	171	749	-48	407	246	-72	-196	-303	254
0.7465	874	173	535	245	279	76	401	173	700	-47	408	242	-74	-203	-297	253
